HIERARCHY
ROOT Hips
{
     OFFSET 1.88212 96.90440 -13.34250
     CHANNELS 6 Xposition Yposition Zposition Zrotation Xrotation Yrotation
     JOINT Spine
     {
          OFFSET 0.00000 11.89050 0.00000
          CHANNELS 3 Zrotation Xrotation Yrotation
          JOINT Spine1
          {
               OFFSET -0.00000 25.65740 0.12766
               CHANNELS 3 Zrotation Xrotation Yrotation
               JOINT HEad
               {
                    OFFSET 0.00000 8.73416 0.01134
                    CHANNELS 3 Zrotation Xrotation Yrotation
                    End Site
                    {
                         OFFSET -0.29000 12.77420 2.51395
                    }
               }
               JOINT LeftShoulder1
               {
                    OFFSET 8.99000 -0.36225 -0.22000
                    CHANNELS 3 Zrotation Xrotation Yrotation
                    JOINT LeftArm
                    {
                         OFFSET 10.28270 -0.00338 0.32212
                         CHANNELS 3 Zrotation Xrotation Yrotation
                         JOINT LeftForeArm
                         {
                              OFFSET 32.76690 0.09914 -1.42434
                              CHANNELS 3 Zrotation Xrotation Yrotation
                              JOINT LeftHand
                              {
                                   OFFSET 27.56430 0.08536 1.02216
                                   CHANNELS 3 Zrotation Xrotation Yrotation
                                   End Site
                                   {
                                        OFFSET 16.74430 -0.60000 1.50291
                                   }
                              }
                         }
                    }
               }
               JOINT RightShoulder
               {
                    OFFSET -8.99000 -0.36225 -0.22000
                    CHANNELS 3 Zrotation Xrotation Yrotation
                    JOINT RightArm
                    {
                         OFFSET -10.28270 -0.00338 0.32212
                         CHANNELS 3 Zrotation Xrotation Yrotation
                         JOINT RightForeArm
                         {
                              OFFSET -32.89710 0.09914 -1.42434
                              CHANNELS 3 Zrotation Xrotation Yrotation
                              JOINT RightHand
                              {
                                   OFFSET -27.49210 0.08536 1.02216
                                   CHANNELS 3 Zrotation Xrotation Yrotation
                                   End Site
                                   {
                                        OFFSET -16.63120 -0.60000 1.50291
                                   }
                              }
                         }
                    }
               }
          }
     }
     JOINT LeftUpLeg
     {
          OFFSET 8.94580 -8.66707 0.10165
          CHANNELS 3 Zrotation Xrotation Yrotation
          JOINT LeftLeg
          {
               OFFSET 0.00000 -44.42270 1.37270
               CHANNELS 3 Zrotation Xrotation Yrotation
               JOINT LeftFoot
               {
                    OFFSET -0.25355 -42.09240 -1.46059
                    CHANNELS 3 Zrotation Xrotation Yrotation
                    JOINT LeftToes
                    {
                         OFFSET -0.04000 -4.41509 8.49910
                         CHANNELS 3 Zrotation Xrotation Yrotation
                         End Site
                         {
                              OFFSET 0.08000 -0.04745 9.77979
                         }
                    }
               }
          }
     }
     JOINT RightUpLeg
     {
          OFFSET -8.94580 -8.66707 0.10165
          CHANNELS 3 Zrotation Xrotation Yrotation
          JOINT RightLeg
          {
               OFFSET 0.00000 -44.42270 1.37270
               CHANNELS 3 Zrotation Xrotation Yrotation
               JOINT RightFoot
               {
                    OFFSET 0.25355 -42.09240 -1.46059
                    CHANNELS 3 Zrotation Xrotation Yrotation
                    JOINT RightToes
                    {
                         OFFSET 0.04000 -4.41509 8.49910
                         CHANNELS 3 Zrotation Xrotation Yrotation
                         End Site
                         {
                              OFFSET -0.08000 -0.13745 9.77979
                         }
                    }
               }
          }
     }
}
MOTION
Frames: 13
Frame Time: 0.01667
25.08501 82.03293 124.85023 -2.98819 6.16380 -152.48602 2.82300 10.94670 3.15896 -0.03338 0.01243 -0.01043 -33.92797 23.99050 42.02843 -3.49502 5.92073 2.96143 -116.62443 -79.50526 -92.91945 -41.07325 52.12528 -99.18157 8.02150 7.33336 2.24567 16.72963 8.08212 7.20311 57.91479 -9.44234 72.18610 21.31072 36.79353 95.52268 -0.30835 9.45422 3.76408 21.59664 -25.02918 15.12224 10.30838 17.24800 -13.86863 5.52340 0.04874 -0.00251 -25.66390 11.09067 2.33685 -18.94735 -3.65415 -3.74748 15.92129 54.36696 1.57866 40.93945 0.01415 -0.01423 -51.69202 -50.98266 -10.08548 
25.40265 82.66811 124.82741 -3.20019 6.18143 -152.17949 1.38621 11.03823 3.15589 -0.03310 0.01133 -0.01609 -32.31279 23.46845 40.68147 -9.00221 6.58229 0.45118 -108.62469 -81.00350 -89.18876 -38.75253 50.65827 -100.80758 12.86423 2.89285 5.15676 12.39172 7.33888 3.82855 63.36635 -6.25096 75.49127 22.96102 36.22708 94.07967 7.93433 11.52531 8.27692 21.74911 -24.58140 14.30878 9.82030 18.98499 -10.59343 2.99058 0.07478 -0.02749 -17.96211 18.20688 -2.79329 -19.21792 -3.42971 -3.03813 18.36094 53.30760 -2.17525 42.55532 0.01137 -0.02305 -63.03448 -55.48557 -11.99692 
25.59256 83.23615 124.78410 -3.46948 6.23196 -151.90608 -0.48634 11.15559 2.93559 -0.02851 0.01081 -0.02083 -30.25691 22.67613 39.13722 -15.14463 7.61028 -3.60190 -92.36881 -84.16265 -77.06364 -36.07007 48.45620 -102.86221 8.76329 6.38069 2.31856 7.42510 6.62565 -1.01823 69.48968 -1.91602 79.56582 25.79032 35.38940 91.82484 12.20687 13.16753 10.52369 22.01579 -23.98998 13.21211 8.98724 21.48451 -5.89103 0.42057 0.09996 -0.04572 -10.42353 20.95003 -8.74821 -19.84501 -2.85790 -1.99172 21.28564 51.41550 -6.39977 43.95748 0.00879 -0.02678 -78.29134 -60.59573 -16.83845 
25.60706 83.81498 124.71843 -3.82892 6.37857 -151.80931 -3.49226 11.41704 1.70521 -0.07301 0.03747 -0.07894 -26.94999 20.81352 37.28004 -13.72067 7.19315 -2.95280 -65.35146 -79.27084 -45.15152 -32.84797 43.41558 -104.49782 -7.98233 27.73032 -7.47114 2.93559 5.07163 -10.16591 76.06736 5.32134 85.12303 32.34581 34.17091 87.25970 8.76450 13.38094 8.90100 22.80190 -22.92743 11.26660 6.81735 25.61452 3.37671 -2.08418 0.20203 -0.04050 -6.40663 15.26417 -15.26237 -21.43168 -1.41068 0.07545 25.63589 46.79046 -11.95177 44.70994 0.01057 -0.02989 -70.02586 -57.42210 -8.15789 
25.39423 84.45173 124.65267 -4.23856 6.62218 -151.94193 -6.94546 12.11114 -0.28639 -0.04832 0.03467 -0.09418 -22.99496 18.10790 34.97549 -11.22387 6.25404 -1.59489 -57.72652 -71.29540 -31.49144 -18.00071 39.14953 -117.27676 -10.46771 37.35748 -11.49757 5.78887 4.63625 -8.98427 77.17822 0.43485 90.00769 40.87287 33.39746 81.75438 10.50949 14.38958 10.59470 24.09135 -21.58034 8.56892 2.40314 30.04538 16.38541 -4.91221 0.26918 -0.07388 -0.25135 12.28515 -24.21711 -23.23308 0.32947 2.34075 29.05612 40.96891 -16.93616 45.11644 0.00809 -0.02032 -69.78799 -57.08925 -2.89958 
24.87090 85.08736 124.59558 -4.67169 6.97738 -152.30399 -10.33316 13.19539 -3.06028 -0.01254 0.03148 -0.09457 -18.77818 14.79112 32.54095 -8.01854 4.99019 0.60026 -56.88691 -61.67908 -24.97791 -0.57412 29.89126 -129.95087 -15.46464 45.67154 -9.44293 8.70227 4.18899 -6.66275 78.12321 -1.96299 92.80032 39.39467 32.85853 81.58762 8.79847 9.80116 10.96930 25.83607 -20.07519 5.16614 -4.69504 33.75048 32.59694 -8.41046 0.36905 -0.09641 4.35459 8.28555 -32.96024 -25.26165 2.03315 4.78632 31.51180 34.13224 -21.44978 24.60130 -0.02076 0.96592 -44.70778 -52.53114 3.88139 
23.91690 85.67604 124.59511 -5.05984 7.45655 -152.89351 -12.80580 13.94006 -5.62788 0.03029 0.00450 0.01545 -14.64975 12.08837 29.22432 3.32150 3.83488 -6.12625 -59.20547 -57.93541 -13.68970 13.95784 15.48829 -135.56265 -15.69525 50.22028 -8.48044 11.43457 4.36015 -4.51615 78.45447 -3.11169 94.23721 38.18885 33.06174 81.77572 1.35661 24.65928 13.59983 27.94053 -18.61480 1.07016 -13.60871 35.59055 48.52965 -13.73219 0.47917 -0.10091 10.40892 5.96784 -39.63217 -27.42542 3.68063 7.37384 33.80482 28.64655 -24.73058 4.43902 -0.50798 0.64629 -22.64028 -49.81366 8.62644 
22.56040 86.19733 124.64391 -5.36484 8.04970 -153.67056 -14.26020 14.37795 -7.99473 0.03279 0.00682 0.02252 -10.58499 9.80242 25.28277 5.28812 4.22536 -2.85720 -61.89373 -46.79528 -17.23139 26.59215 0.85399 -131.87518 -18.60373 53.85356 -4.55545 13.79188 4.99990 -2.57427 78.33694 -3.38792 94.66187 32.25143 30.29105 85.44904 10.61523 5.16478 12.64251 30.15361 -17.25124 -3.76869 -21.68584 34.52021 61.39888 -11.83558 -0.07080 -0.05993 2.18208 18.73963 -31.88629 -29.67864 4.91978 10.01591 36.62850 25.07567 -28.15152 -6.55769 -0.28968 0.06503 -16.37343 -32.68692 3.13431 
20.85764 86.60265 124.78026 -5.54309 8.72549 -154.60439 -13.63099 14.77252 -11.22015 0.10663 0.04547 -0.03944 -7.63422 7.28567 21.61755 5.62368 4.63231 0.91859 -62.47877 -38.42257 -22.94133 39.72509 -8.51036 -121.89643 -19.66658 55.67877 -1.00728 14.29429 5.75784 -0.05999 78.11914 -3.10915 94.44596 28.66698 29.20960 87.87641 -3.86989 27.44484 12.64259 32.03329 -15.95211 -9.42648 -29.23011 31.34671 73.26127 -9.69876 -0.08012 0.02246 4.90775 11.56136 -42.00947 -32.73775 5.25279 12.10583 40.07394 22.81455 -30.83716 -17.27713 -0.26620 -0.00304 -2.06125 -38.45026 9.99317 
18.88772 86.85297 125.05417 -5.55531 9.43940 -155.67505 -11.17369 15.10978 -15.03504 0.09295 0.06019 -0.02618 -5.11133 4.52892 18.29446 4.39591 4.90249 4.83691 -61.78938 -33.62678 -29.97630 53.24901 -11.45254 -110.44000 -22.53882 57.15679 3.95418 20.81706 6.07455 -6.86010 70.35970 5.78895 96.56037 26.62855 28.79546 89.21242 4.07913 14.55889 8.96454 33.33147 -14.62232 -15.87642 -35.55339 26.46739 83.84666 -7.42201 -0.06129 0.03616 2.54221 13.66427 -41.90120 -35.95118 4.71011 13.31833 43.71501 22.00905 -32.82050 -27.65899 -0.22173 -0.06557 6.97362 -18.31870 5.25682 
16.73895 86.93587 125.51239 -5.38805 10.15081 -156.86812 -7.26792 15.36323 -19.23662 0.06788 0.06787 -0.02500 -2.66510 1.47015 15.91113 7.77406 7.72469 -1.35291 -65.09093 -41.39763 -34.68523 65.89993 -9.94641 -100.85297 -24.37207 57.55926 8.43573 16.96712 6.72892 -2.63854 75.64976 4.28261 93.60702 26.77310 32.82393 89.88121 1.22069 19.89255 10.97514 34.26248 -13.36486 -21.82167 -40.27140 21.10385 92.24802 -5.19919 -0.04217 0.04136 2.13054 10.00963 -45.81881 -38.80268 3.46243 13.44801 47.10772 22.60545 -34.20073 -37.61684 -0.16746 -0.10191 18.87085 -26.70478 10.85852 
14.49552 86.89246 126.14148 -5.06792 10.81680 -158.15849 -3.72754 15.43205 -22.67165 -0.01759 0.01071 0.02944 -0.21028 -1.17298 14.11584 4.22395 7.53960 2.74200 -62.54486 -40.55855 -42.31617 77.66154 -5.40834 -94.16321 -20.10058 57.15593 10.38570 13.57100 7.16383 0.64590 79.39783 3.51913 91.79101 26.77048 35.32755 89.95619 5.83343 12.99090 9.17165 34.88935 -12.13978 -27.16665 -43.66897 15.68745 98.88384 -3.10347 -0.02643 0.04240 0.70488 7.98193 -47.13976 -40.91548 1.65934 12.41457 48.08180 25.49834 -34.33676 -30.49299 0.09136 0.06396 14.45066 -21.90206 10.96459 
12.20393 86.81372 126.86189 -4.64506 11.42486 -159.48738 -0.61347 15.45167 -25.42695 -0.02678 0.00893 0.02793 2.09527 -3.50544 12.95385 0.67670 7.15632 5.88066 -60.09543 -41.36981 -50.49380 88.89159 0.98427 -91.03877 -23.62333 57.55094 14.67616 10.44184 7.32636 3.37145 82.15399 3.08910 90.52975 26.66005 36.75651 89.73692 4.46147 16.26333 10.09613 35.28006 -10.88269 -31.87559 -46.01584 10.44574 104.09808 -1.14484 -0.01518 0.04034 -0.37048 4.06237 -49.20934 -42.30897 -0.90507 10.23229 50.68293 29.80450 -35.37651 -18.06916 0.22541 0.19159 4.80925 -25.22023 13.61196 
